<?xml version="1.0" encoding="UTF-8" standalone="no"?>
<!-- Created with Inkscape (http://www.inkscape.org/) -->

<svg
   width="225.7618mm"
   height="227.58931mm"
   viewBox="0 0 225.7618 227.58931"
   version="1.1"
   id="svg1"
   xml:space="preserve"
   xmlns:inkscape="http://www.inkscape.org/namespaces/inkscape"
   xmlns:sodipodi="http://sodipodi.sourceforge.net/DTD/sodipodi-0.dtd"
   xmlns="http://www.w3.org/2000/svg"
   xmlns:svg="http://www.w3.org/2000/svg"><sodipodi:namedview
     id="namedview1"
     pagecolor="#505050"
     bordercolor="#eeeeee"
     borderopacity="1"
     inkscape:showpageshadow="0"
     inkscape:pageopacity="0"
     inkscape:pagecheckerboard="0"
     inkscape:deskcolor="#505050"
     inkscape:document-units="mm"><inkscape:page
       x="0"
       y="0"
       width="225.7618"
       height="227.58931"
       id="page2"
       margin="0"
       bleed="0" /></sodipodi:namedview><defs
     id="defs1" /><g
     inkscape:label="Layer 1"
     inkscape:groupmode="layer"
     id="layer1"
     transform="translate(-250.34209,-26.07435)"><path
       style="fill:#000000"
       d="m 359.32806,253.61004 c -7.46705,-0.88718 -13.96181,-3.38315 -19.4723,-7.48331 -11.16703,-8.30899 -17.24088,-22.18068 -15.71179,-35.88319 0.63496,-5.69007 2.01105,-10.30051 4.65927,-15.61041 3.34586,-6.70875 7.57974,-12.24036 15.92241,-20.8028 l 4.80131,-4.92779 -4.95518,-4.83238 c -2.72534,-2.65781 -6.11307,-5.97152 -7.52827,-7.3638 l -2.57308,-2.53141 -5.76129,5.68782 c -7.65219,7.55461 -11.7174,10.76924 -18.01501,14.24569 -16.67743,9.20639 -36.21994,6.84867 -49.15891,-5.93082 -5.52913,-5.46098 -9.32121,-12.91595 -10.71823,-21.07127 -0.75944,-4.43336 -0.59268,-10.86269 0.39029,-15.0472 4.10186,-17.46183 18.20839,-29.25941 36.57352,-30.58722 4.4955,-0.32502 12.4172,0.97735 17.03124,2.80004 4.68304,1.84995 10.66808,5.42347 15.35769,9.1697 1.23693,0.9881 4.92786,4.44909 8.20208,7.69108 l 5.95313,5.89453 7.66346,-7.66981 7.66347,-7.6698 -4.36966,-4.43249 c -7.02487,-7.12588 -9.94474,-10.578218 -13.29996,-15.725392 -5.75828,-8.833658 -8.50158,-18.247313 -8.01397,-27.500038 0.77686,-14.741593 8.91708,-27.359124 21.73374,-33.687834 8.48877,-4.191649 17.03485,-5.285829 25.9719,-3.32526 7.1437,1.567153 13.455,4.988458 18.89183,10.241118 6.13409,5.926294 10.0094,13.323094 11.39253,21.744883 0.45669,2.780712 0.52738,4.112713 0.42293,7.968991 -0.14775,5.454947 -0.73783,8.822698 -2.35652,13.449415 -3.00723,8.59559 -7.6375,15.307219 -17.93468,25.996497 l -4.99227,5.18238 7.642,7.63859 7.642,7.63859 5.36743,-5.41527 c 10.68943,-10.7847 18.71493,-16.02631 28.32959,-18.50261 4.31879,-1.11232 6.74272,-1.43025 10.90451,-1.43025 4.31761,0 6.76765,0.34946 11.02368,1.57234 7.95983,2.28709 15.49703,7.48334 20.47445,14.11538 3.37144,4.49218 6.17623,10.98279 7.15705,16.56223 0.55592,3.16236 0.62723,9.56572 0.14145,12.7 -0.94802,6.11652 -3.78038,12.9655 -7.28252,17.60995 -5.69275,7.54957 -14.83225,13.17475 -24.36943,14.99891 -3.6205,0.69249 -11.79371,0.606 -15.34676,-0.16239 -8.13474,-1.75924 -15.49712,-5.5221 -23.472,-11.99637 -1.64248,-1.33343 -5.27318,-4.72402 -8.06821,-7.53465 -2.79503,-2.81063 -5.16081,-5.11024 -5.2573,-5.11024 -0.20389,0 -14.74858,14.29603 -14.89292,14.63829 -0.0532,0.12609 1.98536,2.33116 4.53007,4.90017 7.18284,7.25142 9.46773,9.93245 12.7748,14.98966 5.53593,8.46562 8.0418,16.46245 8.05467,25.70444 0.009,6.21161 -1.20681,11.47708 -3.96071,17.15807 -3.79588,7.83048 -10.09065,14.19349 -17.91491,18.1091 -5.20403,2.60433 -9.89721,3.71849 -16.21953,3.85052 -2.25558,0.0471 -4.51776,0.0361 -5.02709,-0.0244 z m 9.12813,-19.02079 c 2.33092,-0.61859 6.13585,-2.57514 7.83157,-4.02711 2.96353,-2.53752 5.23897,-5.98338 6.50885,-9.85681 0.67803,-2.06814 0.74083,-2.59615 0.74083,-6.22845 0,-4.59615 -0.4319,-6.53787 -2.35409,-10.58334 -2.41887,-5.0908 -5.71395,-9.346 -12.83942,-16.58058 l -5.03811,-5.11525 -5.24093,5.29167 c -8.6199,8.70333 -12.26011,13.80635 -14.15543,19.84375 -2.38024,7.58204 -0.96822,15.03363 3.95951,20.89536 2.70349,3.21589 7.53502,5.97345 11.82277,6.74774 1.88067,0.33961 6.85402,0.12003 8.76445,-0.38698 z m -72.89271,-74.46682 c 3.04758,-0.86436 7.46812,-3.18655 10.71563,-5.62911 1.7073,-1.28412 5.31335,-4.55446 8.7233,-7.9112 l 5.81289,-5.72219 -3.89373,-4.09501 c -6.99107,-7.35249 -11.70231,-11.22012 -16.65679,-13.67418 -8.31022,-4.11622 -16.58107,-3.4663 -23.68847,1.86143 -3.09157,2.31745 -6.27147,7.3546 -7.07552,11.20804 -0.56052,2.6863 -0.50123,6.68785 0.13865,9.35701 1.09469,4.56641 4.3982,9.36321 8.19396,11.89792 1.8589,1.24133 5.03508,2.60169 7.25509,3.10737 2.36516,0.53874 7.91182,0.32689 10.47499,-0.40008 z m 147.99016,-0.29169 c 4.00043,-1.33076 7.11728,-3.52712 9.56075,-6.7372 2.99835,-3.93904 4.17856,-7.43966 4.19252,-12.43541 0.006,-2.22301 -0.13002,-3.68608 -0.45436,-4.87949 -2.59969,-9.56561 -11.23348,-15.83015 -21.05513,-15.27729 -5.62991,0.31691 -10.90294,2.58897 -16.67352,7.18434 -2.64382,2.10539 -13.22917,12.49696 -13.22917,12.98699 0,0.55208 11.80377,11.93929 14.32583,13.82027 6.36365,4.74607 11.15152,6.47654 17.42417,6.29758 2.87845,-0.0821 3.64463,-0.20657 5.90891,-0.95979 z m -72.44869,-11.87795 7.57382,-7.522 -7.69098,-7.69097 -7.69098,-7.69098 -7.73906,7.75045 -7.73906,7.75045 7.67291,7.51783 c 4.22011,4.13481 7.75541,7.49295 7.85622,7.46253 0.10082,-0.0304 3.59152,-3.44021 7.75713,-7.57731 z m -2.34644,-55.382684 c 7.13099,-7.221081 10.11536,-11.046686 12.41797,-15.918356 1.67445,-3.542673 2.25055,-5.830471 2.41954,-9.608422 0.24239,-5.419038 -0.83613,-9.171683 -3.87835,-13.494423 -3.88155,-5.515357 -10.61784,-8.813692 -17.28825,-8.464959 -3.40809,0.178177 -5.24001,0.664803 -8.35021,2.218132 -6.2882,3.140522 -10.52121,9.476639 -11.28479,16.891465 -0.20828,2.022501 0.25311,6.07779 0.96329,8.466667 1.02986,3.464209 3.67716,8.160067 6.895,12.230513 1.55675,1.969242 12.29133,13.037199 12.6445,13.037199 0.0937,0 2.55127,-2.41102 5.4613,-5.357816 z"
       id="path1" /></g></svg>
